<?xml version="1.0" encoding="UTF-8"?>
<svg version="1.1" xmlns="http://www.w3.org/2000/svg" width="1993" height="577">
<path d="M0 0 C6.63371581 5.65987756 12.88079166 11.72531586 19.0546875 17.87768555 C20.32025482 19.13339607 20.32025482 19.13339607 21.61138916 20.41447449 C24.36878953 23.15235977 27.12233326 25.89407474 29.875 28.63671875 C30.83377233 29.59143239 31.79257385 30.54611671 32.75140381 31.50077248 C37.25715675 35.98755101 41.76054408 40.47668732 46.26101112 44.96876782 C51.41251839 50.11050914 56.57220291 55.24385784 61.73898888 60.37024468 C65.76343593 64.36432551 69.77997966 68.36624856 73.79091835 72.37389404 C76.17280914 74.75345931 78.55867124 77.12863873 80.95111084 79.49762535 C93.07611327 91.51107514 104.93720778 103.38871628 112.375 119 C112.69678223 119.66241699 113.01856445 120.32483398 113.35009766 121.00732422 C124.18101803 144.04844503 124.81898823 170.90663092 116.60546875 194.84375 C114.9496071 199.31893679 112.93836011 203.5751385 110.75 207.8125 C110.41605225 208.46903564 110.08210449 209.12557129 109.73803711 209.80200195 C102.93386496 222.35863656 92.03357049 232.27853842 82.03515625 242.265625 C80.59202339 243.7126549 79.14911064 245.15990436 77.70640564 246.60736084 C74.69835686 249.62282451 71.68652468 252.63444609 68.67211914 255.64355469 C64.82973841 259.48012922 60.99887788 263.32798367 57.17099857 267.17901993 C54.20008859 270.16472765 51.22221003 273.1434096 48.24233818 276.12017059 C46.8275572 277.53546115 45.41510396 278.95308297 44.00514412 280.37317657 C34.62666109 289.81081338 25.42750414 298.20267598 13.375 304.125 C12.70549316 304.45701416 12.03598633 304.78902832 11.34619141 305.13110352 C-10.14897346 315.44307464 -37.25102352 318.34392262 -60.07324219 310.69335938 C-85.93261234 301.38765597 -102.7682724 283.4030681 -121.8671875 264.37109375 C-122.86258265 263.37975821 -123.85800655 262.38845153 -124.8534584 261.39717293 C-129.52470163 256.74487448 -134.19360139 252.09024006 -138.85958087 247.43266243 C-144.20978517 242.09225891 -149.56820561 236.76027698 -154.93360412 231.43514007 C-159.1099871 227.28900811 -163.27857744 223.1351423 -167.44151413 218.97551018 C-169.91600525 216.5033545 -172.39360069 214.03452542 -174.87957382 211.57391167 C-177.64949775 208.83180599 -180.4031799 206.07372755 -183.15576172 203.31420898 C-183.96625473 202.51652603 -184.77674774 201.71884308 -185.61180115 200.89698792 C-196.56190052 189.84639147 -202.33722858 177.65803637 -202.5 162.0625 C-202.37246858 149.8342864 -199.6475778 139.69801532 -192 130 C-191.48695313 129.31292969 -190.97390625 128.62585938 -190.4453125 127.91796875 C-181.86629435 117.18393408 -169.36073781 111.91378708 -156 110 C-143.41851085 108.64404446 -130.0840019 112.52313523 -120 120 C-110.02806288 128.26355285 -101.09177294 137.78150667 -91.9609375 146.94140625 C-90.22667014 148.67754172 -88.49217962 150.41345429 -86.75747681 152.14915466 C-82.22126641 156.68915932 -77.68806878 161.23216042 -73.15551758 165.77581787 C-68.51827436 170.4233421 -63.87815274 175.0679906 -59.23828125 179.71289062 C-50.15605405 188.80580055 -41.07691258 197.90178496 -32 207 C-28.55220166 205.37026273 -26.2999859 203.54292699 -23.59863281 200.82568359 C-22.7380426 199.96494232 -21.87745239 199.10420105 -20.99078369 198.21737671 C-20.07085632 197.28712677 -19.15092896 196.35687683 -18.203125 195.3984375 C-17.24520903 194.43678914 -16.28684886 193.47558306 -15.32806396 192.51480103 C-12.81164875 189.99076718 -10.30129893 187.46078409 -7.79217529 184.92950439 C-5.22837559 182.3452081 -2.65887082 179.76659801 -0.08984375 177.1875 C4.94569457 172.13054303 9.9748456 167.06727744 15 162 C10.57376001 156.69357746 5.89627449 151.77934242 0.97851562 146.9284668 C-0.1934008 145.76596909 -0.1934008 145.76596909 -1.38899231 144.57998657 C-3.07558638 142.9071781 -4.76324364 141.23544102 -6.45185852 139.56467247 C-9.12906267 136.91425946 -11.80173721 134.2593593 -14.47302246 131.60298157 C-22.06489088 124.05371195 -29.65908305 116.50685658 -37.27001953 108.97680664 C-41.93499385 104.36131005 -46.58923702 99.73514604 -51.23762512 95.10294533 C-53.00411167 93.34632066 -54.77423884 91.59334881 -56.54814148 89.84421349 C-59.03433291 87.3919733 -61.50763204 84.9273676 -63.97851562 82.4597168 C-64.70492752 81.74925705 -65.43133942 81.0387973 -66.17976379 80.30680847 C-76.89089533 69.53193292 -82.34170262 57.22936803 -82.5 42.0625 C-82.37246858 29.8342864 -79.6475778 19.69801532 -72 10 C-71.48695313 9.31292969 -70.97390625 8.62585938 -70.4453125 7.91796875 C-53.69798835 -13.03621912 -21.05199914 -15.68970874 0 0 Z " fill="#0061C3" transform="translate(361,133)"/>
<path d="M0 0 C9.95199487 8.25397611 18.88737658 17.74204252 28.01171875 26.87890625 C29.75171074 28.61822341 31.49185104 30.35739221 33.23213196 32.09642029 C36.86381908 35.72663962 40.49370801 39.35864479 44.12231445 42.99194336 C48.75884632 47.63418047 53.39986531 52.27190158 58.04223919 56.90829563 C61.63094878 60.49338203 65.21726132 64.08085868 68.80286598 67.66905022 C70.51285354 69.37970173 72.2235756 71.08961937 73.93506432 72.798769 C76.32983298 75.19098123 78.72134436 77.5864047 81.11206055 79.98266602 C81.80989151 80.67847275 82.50772247 81.37427948 83.22669983 82.09117126 C87.13719028 86.01837194 90.85766591 90.05475584 94.47929668 94.2496748 C96.20777598 96.23914956 98.00129616 98.14672534 99.84887695 100.02587891 C100.51679764 100.70663483 101.18471832 101.38739075 101.87287903 102.08877563 C102.57096176 102.7942453 103.26904449 103.49971497 103.98828125 104.2265625 C104.73152145 104.97787445 105.47476166 105.7291864 106.24052429 106.50326538 C107.80300509 108.07948063 109.36697578 109.65422024 110.93237305 111.22753906 C112.51825489 112.82497056 114.09965254 114.42686643 115.67651367 116.03320312 C117.97889665 118.3784936 120.29446703 120.71002924 122.61328125 123.0390625 C123.65129631 124.10333969 123.65129631 124.10333969 124.71028137 125.18911743 C134.69110297 135.12683222 146.5395761 141.14921372 160.75 141.375 C170.59692077 141.05510004 176.78209646 138.83549976 185.4609375 134.14453125 C186.29882812 133.76683594 187.13671875 133.38914062 188 133 C188.66 133.33 189.32 133.66 190 134 C184.63974631 139.43681882 179.26737057 144.8614446 173.88671875 150.27807617 C172.06071546 152.11909169 170.23742291 153.96280021 168.41699219 155.80932617 C165.78782628 158.47520825 163.14880604 161.13099695 160.5078125 163.78515625 C159.70634796 164.60210464 158.90488342 165.41905304 158.07913208 166.26075745 C150.74060747 173.60141378 142.69805928 179.54386256 133.375 184.125 C132.70549316 184.45701416 132.03598633 184.78902832 131.34619141 185.13110352 C109.85102654 195.44307464 82.74897648 198.34392262 59.92675781 190.69335938 C34.06738766 181.38765597 17.2317276 163.4030681 -1.8671875 144.37109375 C-2.86258265 143.37975821 -3.85800655 142.38845153 -4.8534584 141.39717293 C-9.52470163 136.74487448 -14.19360139 132.09024006 -18.85958087 127.43266243 C-24.20978517 122.09225891 -29.56820561 116.76027698 -34.93360412 111.43514007 C-39.1099871 107.28900811 -43.27857744 103.1351423 -47.44151413 98.97551018 C-49.91600525 96.5033545 -52.39360069 94.03452542 -54.87957382 91.57391167 C-57.64949775 88.83180599 -60.4031799 86.07372755 -63.15576172 83.31420898 C-64.37150124 82.11768456 -64.37150124 82.11768456 -65.61180115 80.89698792 C-76.56190052 69.84639147 -82.33722858 57.65803637 -82.5 42.0625 C-82.37246858 29.8342864 -79.6475778 19.69801532 -72 10 C-71.48695313 9.31292969 -70.97390625 8.62585938 -70.4453125 7.91796875 C-53.66632913 -13.07583102 -21.09082826 -15.63940398 0 0 Z " fill="#65CBFE" transform="translate(241,253)"/>
<path d="M0 0 C4.97763754 4.18378845 9.7081352 8.52385947 14.33203125 13.09375 C15.00868332 13.76233032 15.68533539 14.43091064 16.38249207 15.11975098 C17.80667054 16.53017992 19.22936341 17.94211039 20.65063477 19.35546875 C22.08201704 20.77537411 23.51784189 22.19081614 24.95825195 23.6015625 C36.12160689 34.53584023 46.58018228 45.73826423 53.375 60 C53.85767334 60.99362549 53.85767334 60.99362549 54.35009766 62.00732422 C65.18101803 85.04844503 65.81898823 111.90663092 57.60546875 135.84375 C55.9496071 140.31893679 53.93836011 144.5751385 51.75 148.8125 C51.41605225 149.46903564 51.08210449 150.12557129 50.73803711 150.80200195 C44.46997107 162.36928938 34.68017554 171.89197968 25.5 181.1875 C24.93228882 181.76305634 24.36457764 182.33861267 23.77966309 182.93161011 C11.41564383 195.35404034 -0.03080736 202.94754282 -18.125 203.3125 C-33.30794195 203.17866408 -44.99180234 196.46517581 -55.53652954 185.91665649 C-56.83715836 184.58505997 -56.83715836 184.58505997 -58.1640625 183.2265625 C-59.08214691 182.3028183 -60.00023132 181.3790741 -60.94613647 180.42733765 C-63.35854345 177.99983284 -65.75867996 175.56055618 -68.15625 173.1184082 C-70.61623808 170.61712045 -73.0879329 168.12745696 -75.55859375 165.63671875 C-80.38375379 160.76896873 -85.19601892 155.88865049 -90 151 C-88.50803467 147.52596448 -86.52720394 145.27923861 -83.86083984 142.61791992 C-82.57842911 141.33089424 -82.57842911 141.33089424 -81.27011108 140.01786804 C-79.87957016 138.63810539 -79.87957016 138.63810539 -78.4609375 137.23046875 C-77.49610483 136.26682985 -76.53164336 135.30281916 -75.5675354 134.3384552 C-73.54468385 132.31716675 -71.51852316 130.29927615 -69.48974609 128.28393555 C-66.90941406 125.72049023 -64.33560941 123.15061585 -61.76408958 120.57833385 C-59.77046791 118.58498648 -57.77423178 116.59427438 -55.7771492 114.60439491 C-54.3716496 113.20356227 -52.96758982 111.80128547 -51.56356812 110.39897156 C-47.12621726 105.99401703 -42.63018602 101.74153852 -37.8894043 97.66603088 C-34.58355358 94.7510119 -31.4974859 91.62004977 -28.39453125 88.4921875 C-27.70743576 87.80367706 -27.02034027 87.11516663 -26.31242371 86.40579224 C-24.14339384 84.23122673 -21.97788322 82.05319614 -19.8125 79.875 C-18.34984371 78.40731851 -16.88695496 76.93986866 -15.42382812 75.47265625 C-12.15508908 72.19402738 -8.88679114 68.91497343 -5.62643433 65.62800598 C-4.1562908 64.15644183 -2.66606371 62.70500907 -1.17358398 61.25610352 C1.48709992 58.49440746 3.10802927 55.48265877 4.75 52.0625 C5.05292969 51.46759766 5.35585938 50.87269531 5.66796875 50.25976562 C8.86150247 43.76624705 9.18120331 37.70248502 9.1875 30.625 C9.19974609 29.90828125 9.21199219 29.1915625 9.22460938 28.453125 C9.24391181 21.32409235 7.86627627 15.11308319 4.5 8.75 C4.0771875 7.94046875 3.654375 7.1309375 3.21875 6.296875 C2.61546875 5.15992188 2.61546875 5.15992188 2 4 C1.33114924 2.66776095 0.66413809 1.33459463 0 0 Z " fill="#0094F8" transform="translate(420,192)"/>
<path d="M0 0 C1.32661812 0.95995207 2.64006937 1.93845177 3.9375 2.9375 C5.2575 3.9275 6.5775 4.9175 7.9375 5.9375 C8.2675 2.6375 8.5975 -0.6625 8.9375 -4.0625 C19.4975 -4.0625 30.0575 -4.0625 40.9375 -4.0625 C41.00552648 10.89879069 41.06066046 25.86000083 41.09293652 40.82141018 C41.10832895 47.77007569 41.12927024 54.71863746 41.16381836 61.66723633 C41.19720054 68.38460257 41.21439986 75.10183931 41.22213173 81.81929207 C41.22763532 84.37026722 41.23838136 86.92123711 41.25469017 89.47216606 C41.47512511 125.41080395 41.47512511 125.41080395 34.375 138.375 C34.02695313 139.02984375 33.67890625 139.6846875 33.3203125 140.359375 C26.0086881 153.45829221 14.36646501 160.67986234 0.3359375 165.0625 C-2.79017631 165.8238954 -5.88532808 166.43538564 -9.0625 166.9375 C-9.80242187 167.06640625 -10.54234375 167.1953125 -11.3046875 167.328125 C-32.52539954 170.37109503 -53.88823313 166.18223581 -73.0625 156.9375 C-70.69659401 151.57078474 -66.52482942 147.79230126 -62.5 143.625 C-61.72591797 142.77615234 -60.95183594 141.92730469 -60.15429688 141.05273438 C-54.41760946 135.14408963 -54.41760946 135.14408963 -50.71801758 134.58007812 C-48.3991198 134.82663823 -46.3042185 135.30339251 -44.0625 135.9375 C-42.24685547 136.21980469 -42.24685547 136.21980469 -40.39453125 136.5078125 C-38.65236328 136.78238281 -38.65236328 136.78238281 -36.875 137.0625 C-24.48916954 138.69906619 -10.94510651 138.45124514 -0.5625 130.5625 C4.83251991 124.8977291 5.50628124 119.46152389 5.9375 111.9375 C5.35484375 112.38480469 4.7721875 112.83210938 4.171875 113.29296875 C-9.32621788 123.24675108 -23.52622507 126.89676633 -40.17089844 124.65332031 C-49.86200809 122.94903747 -57.91547251 119.54903868 -66.0625 113.9375 C-67.6403125 112.8546875 -67.6403125 112.8546875 -69.25 111.75 C-83.57511108 97.42488892 -89.73046672 79.21956059 -90.25 59.25 C-89.98088313 39.96329068 -84.14128638 22.51958221 -70.7734375 8.44921875 C-52.45003161 -8.52765443 -21.58274441 -13.98171326 0 0 Z M-49.0625 34.9375 C-55.60356667 46.02887391 -56.87335777 58.68685309 -54.4140625 71.25 C-51.69918621 79.41783293 -47.0796471 86.48252733 -39.5625 90.875 C-30.20428702 95.46701652 -22.1789027 96.08656013 -12.37890625 92.83984375 C-4.99985181 89.96537229 0.86657852 84.33508928 4.234375 77.18359375 C8.75082506 65.15609087 9.25338983 54.13599617 4.9375 41.9375 C1.06137526 34.14902506 -5.0787121 27.20120144 -13.3125 24 C-27.53144665 20.05301653 -39.57070086 23.85545179 -49.0625 34.9375 Z " fill="#FFFFFF" transform="translate(1464.0625,264.0625)"/>
<path d="M0 0 C87.12758621 0 87.12758621 0 111 23 C111.71414063 23.68578125 112.42828125 24.3715625 113.1640625 25.078125 C129.95753842 42.58483735 134.70512309 66.19865936 134.25 89.70703125 C133.46102111 111.50257305 126.08143472 132.76766503 110 148 C78.86778738 174.2166001 39.10322615 169 0 169 C0 113.23 0 57.46 0 0 Z M34 31 C34 66.64 34 102.28 34 139 C53.67176201 139 69.9057316 138.33149548 84.609375 124.484375 C94.87145722 113.58752481 97.94718637 98.94751243 98.375 84.4375 C97.92834405 69.96584724 94.32669202 55.31650647 84.1875 44.5 C69.20719053 31.12063963 54.15509745 31 34 31 Z " fill="#FFFFFF" transform="translate(1168,217)"/>
<path d="M0 0 C12.54 0 25.08 0 38 0 C40.54040087 6.35100217 42.97380477 12.62107715 45.14453125 19.08984375 C45.43111603 19.93570038 45.71770081 20.78155701 46.01296997 21.65304565 C46.62820658 23.46914725 47.24233458 25.28562473 47.85543823 27.10244751 C49.50885587 32.00027745 51.17209192 36.89476686 52.8359375 41.7890625 C53.17848068 42.79687271 53.52102386 43.80468292 53.87394714 44.84303284 C59.00462676 59.91562858 64.27832888 74.93861036 69.54142761 89.96534729 C71.26742729 94.89602122 72.98143105 99.83057626 74.68359375 104.76953125 C75.06330322 105.86998779 75.4430127 106.97044434 75.83422852 108.10424805 C76.50244866 110.04370097 77.16849145 111.98390621 77.83178711 113.92504883 C78.90036842 117.75537941 78.90036842 117.75537941 81 121 C81.21725235 120.3563298 81.4345047 119.71265961 81.65834045 119.04948425 C84.45644657 110.76104634 87.25814649 102.473826 90.0625 94.1875 C90.28808846 93.52089985 90.51367691 92.8542997 90.74610138 92.16749954 C97.44709507 72.36989713 104.21774522 52.59876586 111.15258789 32.8815918 C111.71382174 31.28438366 112.27494156 29.68713546 112.8359375 28.08984375 C113.10033127 27.33801315 113.36472504 26.58618256 113.63713074 25.81156921 C115.87889947 19.40918958 118.02178531 12.97519205 120.11630249 6.5231781 C121.89274259 1.10725741 121.89274259 1.10725741 123 0 C125.8116338 -0.08861992 128.59858255 -0.11522355 131.41015625 -0.09765625 C132.25219101 -0.0962413 133.09422577 -0.09482635 133.96177673 -0.09336853 C136.66205335 -0.08775263 139.36224828 -0.07519748 142.0625 -0.0625 C143.88867068 -0.05748705 145.71484266 -0.05292379 147.54101562 -0.04882812 C152.02737542 -0.03777804 156.51367384 -0.02050279 161 0 C160.3679719 3.53514088 159.45307582 6.78778358 158.22851562 10.16186523 C157.86235641 11.17602509 157.4961972 12.19018494 157.11894226 13.2350769 C156.71875381 14.33183746 156.31856537 15.42859802 155.90625 16.55859375 C155.48789383 17.71352325 155.06953766 18.86845276 154.63850403 20.05838013 C153.49990304 23.19863687 152.35799754 26.33765082 151.21432877 29.47606277 C150.25558935 32.10861417 149.29946125 34.74211103 148.34323215 37.37557507 C140.70970838 58.39532931 132.97765698 79.3782237 125.20310974 100.34619141 C120.84085214 112.11789401 116.5147441 123.90289225 112.1875 135.6875 C111.6096727 137.26061447 111.6096727 137.26061447 111.02017212 138.86550903 C109.92334772 141.85165146 108.82682715 144.83790521 107.73046875 147.82421875 C107.25188919 149.12747604 107.25188919 149.12747604 106.76364136 150.45706177 C104.49705003 156.63375633 102.24850283 162.81661721 100 169 C87.46 169 74.92 169 62 169 C58.9668518 161.72044432 56.00113295 154.51129196 53.3125 147.11328125 C52.9774646 146.1985051 52.6424292 145.28372894 52.29724121 144.3412323 C51.5743576 142.36658552 50.85266998 140.39150057 50.13208008 138.41601562 C48.56022162 134.10687938 46.98244102 129.79991794 45.40515137 125.49276733 C44.56540979 123.19944221 43.72597807 120.9060036 42.88684082 118.61245728 C38.55064954 106.76267898 34.18705781 94.92304657 29.82138062 83.08410645 C28.50240122 79.50651306 27.18426727 75.92860941 25.86645508 72.35058594 C21.91009747 61.6086553 17.95205774 50.86736649 13.98422241 40.12966919 C12.28578851 35.53179663 10.58989332 30.93299037 8.89453125 26.33398438 C8.0944288 24.16542191 7.29317248 21.99728479 6.49072266 19.82958984 C5.39062449 16.8575168 4.29445233 13.88402468 3.19921875 10.91015625 C2.87221481 10.02977188 2.54521088 9.14938751 2.20829773 8.24232483 C1.91485977 7.44314133 1.62142181 6.64395782 1.3190918 5.82055664 C1.06266403 5.1264418 0.80623627 4.43232697 0.54203796 3.71717834 C0 2 0 2 0 0 Z " fill="#FFFFFF" transform="translate(566,217)"/>
<path d="M0 0 C14.25703647 10.57131611 23.89193615 25.50910277 27 43 C29.61644903 61.33676675 26.5347334 78.83094226 16.05859375 94.30859375 C4.05551036 110.00142953 -11.4331158 118.37487765 -31 121 C-51.12146112 122.43369759 -70.10371771 118.95361047 -85.984375 105.7578125 C-86.64953125 105.17773438 -87.3146875 104.59765625 -88 104 C-88.60328125 103.50242187 -89.2065625 103.00484375 -89.828125 102.4921875 C-100.41015119 93.00649736 -107.2052671 76.88655972 -108.14086914 62.89306641 C-109.01664331 41.97545286 -104.51106719 23.80277204 -90 8 C-66.58330336 -15.74717422 -27.54473638 -17.29553215 0 0 Z M-65 29 C-72.42505275 37.7720011 -74.63929324 47.13118427 -74.34375 58.47265625 C-73.41347554 68.01854079 -69.95929383 76.30582213 -63 83 C-54.85624476 89.17756311 -46.24107956 92.07174088 -36 91 C-25.58816385 89.04572792 -17.58231302 83.9546269 -11.44140625 75.3203125 C-5.94228339 66.46806594 -5.81894236 56.15894114 -7 46 C-9.22806876 36.71638017 -14.42900636 28.49339 -22.59765625 23.37109375 C-37.07721065 15.88608109 -53.07195837 17.48238561 -65 29 Z " fill="#FFFFFF" transform="translate(1120,268)"/>
<path d="M0 0 C1.52620972 0.00845947 1.52620972 0.00845947 3.08325195 0.01708984 C19.23067309 0.27822018 32.48374716 5.28212675 44.21484375 16.625 C59.37877519 33.10649262 60.6875 53.81992097 60.6875 75.3125 C31.6475 75.3125 2.6075 75.3125 -27.3125 75.3125 C-23.86094061 86.81769797 -22.06347607 92.32541691 -11.91015625 98.0859375 C-2.6370441 102.46451978 7.77698143 102.96583332 17.5625 99.75 C22.27361146 97.80227183 25.99033642 95.04751813 29.8125 91.703125 C31.6875 90.3125 31.6875 90.3125 34.6875 90.3125 C36.7722168 92.05664062 36.7722168 92.05664062 39.13671875 94.46875 C39.98427734 95.32597656 40.83183594 96.18320312 41.70507812 97.06640625 C42.58615234 97.97261719 43.46722656 98.87882812 44.375 99.8125 C45.71401367 101.17181641 45.71401367 101.17181641 47.08007812 102.55859375 C49.28939251 104.80335168 51.49142533 107.05479998 53.6875 109.3125 C52.75159496 110.4180189 51.81370142 111.52185453 50.875 112.625 C50.35292969 113.23988281 49.83085938 113.85476563 49.29296875 114.48828125 C39.50936578 125.60492988 25.12205194 131.38585951 10.54492188 132.47216797 C-9.78872724 133.53654882 -27.57474306 128.56630827 -43.4296875 115.578125 C-54.67881695 105.33572698 -61.43122667 89.27958942 -62.45336914 74.23974609 C-63.3501884 53.15213132 -59.50292239 34.65295316 -45.5 18.3125 C-32.96909516 5.3779924 -17.67352154 -0.1023027 0 0 Z M-20.3125 36.3125 C-24.1297721 41.80111827 -25.33759426 45.4881598 -26.3125 52.3125 C-9.1525 52.3125 8.0075 52.3125 25.6875 52.3125 C24.63819747 43.91807975 23.06619308 39.09982168 16.8125 33.5 C5.57403689 25.63307582 -10.67995734 25.31942872 -20.3125 36.3125 Z " fill="#FFFFFF" transform="translate(781.3125,256.6875)"/>
<path d="M0 0 C9.48925062 8.62659147 12.6390042 20.58122447 13.8125 32.875 C13.93861252 35.8105134 13.93964723 38.73988112 13.92602539 41.67773438 C13.92617142 42.51770966 13.92631744 43.35768494 13.9264679 44.22311401 C13.92577683 46.97168654 13.91802256 49.72018946 13.91015625 52.46875 C13.9082892 54.38545698 13.90686665 56.30216444 13.90586853 58.21887207 C13.90206595 63.24281145 13.89225512 68.26672154 13.88116455 73.29064941 C13.87090169 78.42553308 13.8663605 83.56042152 13.86132812 88.6953125 C13.85063067 98.75522322 13.83305234 108.81510458 13.8125 118.875 C2.9225 118.875 -7.9675 118.875 -19.1875 118.875 C-19.1875 116.895 -19.1875 114.915 -19.1875 112.875 C-19.78175781 113.27332031 -20.37601563 113.67164063 -20.98828125 114.08203125 C-34.07320311 122.44579934 -47.94998183 123.75642456 -63 120.75 C-75.43510975 117.47922672 -84.99461561 110.82638832 -91.640625 99.828125 C-97.20432271 89.20652028 -97.73025821 77.6091015 -94.625 66.125 C-91.28215777 56.42374457 -84.95660815 49.16806528 -76.1875 43.875 C-61.49246123 37.13831952 -43.98726251 34.86107837 -28.34375 40.0234375 C-25.95529883 40.96670263 -23.56773998 41.91117043 -21.1875 42.875 C-20.86912274 36.93195772 -21.27950724 32.16118926 -24.1875 26.875 C-28.45317465 22.23294229 -34.35389741 20.35420032 -40.5 19.5859375 C-46.80016463 19.35797102 -52.68580751 20.67631389 -58.79296875 22.12109375 C-59.91316406 22.36988281 -61.03335937 22.61867188 -62.1875 22.875 C-63.28835938 23.25269531 -64.38921875 23.63039063 -65.5234375 24.01953125 C-71.62641276 23.77879555 -74.61585835 19.40227924 -78.625 15.125 C-79.45193359 14.28710938 -80.27886719 13.44921875 -81.13085938 12.5859375 C-87.1875 6.32424133 -87.1875 6.32424133 -87.1875 2.875 C-60.43983241 -11.43673902 -26.79381589 -17.86254393 0 0 Z M-58.625 68.3125 C-61.7098681 73.37168369 -62.62528614 76.77518269 -61.79296875 82.66015625 C-60.52043237 87.31517644 -57.51873665 89.93339359 -53.625 92.6875 C-46.93276574 95.94781925 -38.66157647 95.95922875 -31.51171875 94.2265625 C-27.00677302 92.45486956 -23.5724765 90.15771454 -21.00390625 85.99609375 C-19.09087223 81.02586662 -19.09087223 75.72413338 -21.00390625 70.75390625 C-24.09574214 65.74448572 -28.56655914 63.27196913 -34.1875 61.875 C-43.43016138 60.76542308 -51.82684671 61.51434671 -58.625 68.3125 Z " fill="#FFFFFF" transform="translate(1752.1875,267.125)"/>
<path d="M0 0 C11.22 0 22.44 0 34 0 C34 8.58 34 17.16 34 26 C41.59 26 49.18 26 57 26 C57 35.24 57 44.48 57 54 C49.41 54 41.82 54 34 54 C34.06900393 61.82908703 34.15703545 69.65764653 34.26245117 77.48632812 C34.29725787 80.14782607 34.32368761 82.80903143 34.34643555 85.47070312 C34.38009589 89.30368497 34.43242014 93.13603516 34.48828125 96.96875 C34.49467117 98.15239136 34.5010611 99.33603271 34.50764465 100.55554199 C34.67202879 110.79316572 34.67202879 110.79316572 39.41596985 119.64831543 C42.81851753 122.55177733 46.91229221 122.28794537 51.1875 122.5625 C53.09595703 122.68818359 53.09595703 122.68818359 55.04296875 122.81640625 C56.01878906 122.87699219 56.99460937 122.93757813 58 123 C58.02465746 127.1117256 58.04283959 131.22342278 58.05493164 135.33520508 C58.0599708 136.73495228 58.06680216 138.1346942 58.07543945 139.53442383 C58.0875232 141.54245777 58.09269807 143.55052957 58.09765625 145.55859375 C58.10289307 146.76829834 58.10812988 147.97800293 58.11352539 149.22436523 C58 152 58 152 57 153 C42.26854801 154.8344827 27.72435369 154.58755365 15 146 C4.78272806 137.4147715 1.65690522 125.75965564 0 113 C-0.24393071 109.08380125 -0.25488224 105.18742208 -0.22705078 101.26464844 C-0.22734283 100.16074265 -0.22763489 99.05683685 -0.22793579 97.91947937 C-0.22655635 94.31602775 -0.21106105 90.71278993 -0.1953125 87.109375 C-0.19157744 84.59303907 -0.1887328 82.07670168 -0.18673706 79.56036377 C-0.17991358 73.64271897 -0.16419431 67.72515155 -0.14403808 61.80753827 C-0.11935938 54.39904938 -0.10872007 46.99055081 -0.09765625 39.58203125 C-0.07627476 26.38797532 -0.04112451 13.19400918 0 0 Z " fill="#FFFFFF" transform="translate(942,234)"/>
<path d="M0 0 C10.89 0 21.78 0 33 0 C33 8.58 33 17.16 33 26 C40.92 26 48.84 26 57 26 C57 35.24 57 44.48 57 54 C49.08 54 41.16 54 33 54 C33.0972594 61.22278989 33.20019481 68.44504916 33.31738281 75.66748047 C33.35551527 78.12120742 33.39039473 80.57498728 33.421875 83.02880859 C33.46786857 86.56887642 33.52580538 90.10858493 33.5859375 93.6484375 C33.59748871 94.73426117 33.60903992 95.82008484 33.62094116 96.93881226 C33.64005436 108.73348963 33.64005436 108.73348963 38.4375 119.0625 C42.5590985 122.17883057 46.14049281 122.23838027 51.1875 122.5625 C53.09595703 122.68818359 53.09595703 122.68818359 55.04296875 122.81640625 C56.01878906 122.87699219 56.99460937 122.93757813 58 123 C58.02465746 127.1117256 58.04283959 131.22342278 58.05493164 135.33520508 C58.0599708 136.73495228 58.06680216 138.1346942 58.07543945 139.53442383 C58.0875232 141.54245777 58.09269807 143.55052957 58.09765625 145.55859375 C58.10289307 146.76829834 58.10812988 147.97800293 58.11352539 149.22436523 C58 152 58 152 57 153 C42.14246716 154.7103439 25.67703658 154.98017675 13.25 145.375 C4.96040853 137.61328346 0.32960259 125.82897402 -0.09012032 114.58597183 C-0.12303453 111.58306766 -0.12359273 108.58168503 -0.11352539 105.57861328 C-0.11367142 104.43656937 -0.11381744 103.29452545 -0.1139679 102.11787415 C-0.11327256 98.35200078 -0.10549784 94.5861772 -0.09765625 90.8203125 C-0.09579073 88.20571927 -0.09436746 85.59112569 -0.09336853 82.97653198 C-0.09026557 76.80372016 -0.08206618 70.63092613 -0.07201904 64.45812213 C-0.06082571 57.42788949 -0.05533935 50.39765597 -0.05032361 43.36741662 C-0.03988267 28.91160061 -0.0215501 14.45580384 0 0 Z " fill="#FFFFFF" transform="translate(1587,234)"/>
<path d="M0 0 C11.22 0 22.44 0 34 0 C34 57.42 34 114.84 34 174 C22.78 174 11.56 174 0 174 C0 116.58 0 59.16 0 0 Z " fill="#FFFFFF" transform="translate(1789,212)"/>
<path d="M0 0 C0 11.22 0 22.44 0 34 C-4.62 34.66 -9.24 35.32 -14 36 C-21.47585189 38.10587377 -27.37036124 41.63715417 -31.25 48.5 C-35.79717249 59.1383719 -36.45491542 70.51629146 -36.51171875 81.9296875 C-36.52862324 83.29974918 -36.54678088 84.66979591 -36.56611633 86.03982544 C-36.61299815 89.59388544 -36.64320245 93.14788489 -36.66955566 96.70214844 C-36.69967895 100.34973041 -36.74594367 103.99710843 -36.79101562 107.64453125 C-36.87782661 114.76303242 -36.93829969 121.88106112 -37 129 C-48.22 129 -59.44 129 -71 129 C-71 87.42 -71 45.84 -71 3 C-60.11 3 -49.22 3 -38 3 C-37.505 9.93 -37.505 9.93 -37 17 C-35.700625 15.453125 -34.40125 13.90625 -33.0625 12.3125 C-23.38135062 1.56748806 -14.41302302 0 0 0 Z " fill="#FFFFFF" transform="translate(929,257)"/>
<path d="M0 0 C11.22 0 22.44 0 34 0 C34 41.58 34 83.16 34 126 C22.78 126 11.56 126 0 126 C0 84.42 0 42.84 0 0 Z " fill="#FFFFFF" transform="translate(1529,260)"/>
<path d="M0 0 C11.22 0 22.44 0 34 0 C34 41.58 34 83.16 34 126 C22.78 126 11.56 126 0 126 C0 84.42 0 42.84 0 0 Z " fill="#FFFFFF" transform="translate(1321,260)"/>
<path d="M0 0 C4.43145861 2.59424973 7.63675836 6.47037935 9.171875 11.390625 C10.37344289 17.68684077 10.02386491 23.02541893 6.8203125 28.6484375 C3.42744228 33.47432124 -0.60718837 36.09781505 -6.30078125 37.21484375 C-12.92345427 37.90495776 -18.21866578 36.77458561 -23.7109375 32.9453125 C-27.78988268 29.38315675 -29.49150217 25.34508077 -30.375 20.0625 C-30.69785532 15.0667387 -29.92600731 10.81027642 -27.4375 6.4375 C-20.1992558 -1.59830541 -10.33239349 -4.61408411 0 0 Z " fill="#FFFFFF" transform="translate(1348.4375,212.5625)"/>
<path d="M0 0 C4.61925925 2.67331364 7.52784619 6.41201465 9.5625 11.3125 C10.24719154 17.69702627 10.49869072 23.97959645 6.5625 29.3125 C2.44417587 33.71814907 -1.34889666 36.38373 -7.4375 37.3125 C-13.82884177 37.38374107 -18.46142928 36.59423527 -23.4375 32.3125 C-28.90387646 26.63816357 -29.85599267 22.12105451 -29.78125 14.39453125 C-29.2643687 9.76022054 -27.57905954 6.70767503 -24.4375 3.3125 C-17.29210747 -2.26090618 -8.44829051 -3.93830084 0 0 Z " fill="#FFFFFF" transform="translate(1555.4375,212.6875)"/>
<path d="M0 0 C1.15224028 0.92961422 2.29659176 1.8690125 3.4375 2.8125 C4.07558594 3.33457031 4.71367187 3.85664063 5.37109375 4.39453125 C7 6 7 6 8 9 C7.01 9 6.02 9 5 9 C3.61328125 7.5390625 3.61328125 7.5390625 2.3125 5.625 C1.65701172 4.68527344 1.65701172 4.68527344 0.98828125 3.7265625 C0 2 0 2 0 0 Z " fill="#005BB6" transform="translate(396,168)"/>
</svg>
