<?xml version="1.0" encoding="UTF-8"?>
<svg version="1.1" xmlns="http://www.w3.org/2000/svg" width="1993" height="577">
<path d="M0 0 C6.7712134 5.61459246 13.0122713 11.85646326 19.23828125 18.0612793 C20.10149994 18.91792679 20.96471863 19.77457428 21.85409546 20.65718079 C24.67642792 23.45999153 27.49491753 26.26663566 30.3125 29.07421875 C31.29356018 30.05122055 32.2746497 31.02819288 33.25576782 32.00513649 C37.86617323 36.59656552 42.47421191 41.19035361 47.07932949 45.78708619 C52.35195695 51.04994725 57.63276412 56.30441821 62.92067051 61.55192631 C67.03853165 65.639428 71.14849661 69.73476614 75.25285244 73.83582813 C77.69060893 76.27125833 80.13140893 78.70341835 82.58071899 81.12723351 C106.19584235 104.53013435 122.46627721 127.7388269 123.3125 162.25 C122.72002024 195.88193923 106.37181779 220.12811284 83.26171875 243.171875 C81.84947827 244.58869156 80.43760517 246.0058744 79.02607727 247.42340088 C76.08527462 250.3730712 73.13896216 253.31709567 70.1887207 256.25732422 C66.43846518 259.99607964 62.704331 263.75048558 58.97442913 267.50953293 C56.06873387 270.43370783 53.15363748 273.3483711 50.23584938 276.26047516 C48.85629617 277.63987669 47.47977199 279.02231549 46.1065731 280.40804291 C26.0972087 300.57425408 2.75022157 314.86459924 -26.38671875 315.24169922 C-57.42332609 315.32445052 -81.06735512 304.96213856 -103.19526672 283.1091156 C-104.03663681 282.26841019 -104.8780069 281.42770477 -105.74487305 280.56152344 C-106.66167847 279.65304153 -107.57848389 278.74455963 -108.52307129 277.80854797 C-111.00915591 275.34416098 -113.48886665 272.87346172 -115.9666822 270.40076351 C-117.52129128 268.84982507 -119.077184 267.30018578 -120.63349342 265.75095367 C-126.080435 260.32841251 -131.52171641 254.90025833 -136.95825195 249.46728516 C-141.99862543 244.4305482 -147.05199263 239.40710923 -152.11142129 234.38952041 C-156.47988568 230.05590034 -160.83852871 225.71255921 -165.18995315 221.36183 C-167.7780702 218.77450039 -170.36988411 216.19117932 -172.97192955 213.61785126 C-175.87657678 210.74455807 -178.76053885 207.85129523 -181.64331055 204.95605469 C-182.91447472 203.70714195 -182.91447472 203.70714195 -184.21131897 202.43299866 C-194.46046206 192.05790594 -201.26931512 180.03115733 -201.46850586 165.26318359 C-201.45827393 164.39258301 -201.44804199 163.52198242 -201.4375 162.625 C-201.42920166 161.7067041 -201.42090332 160.7884082 -201.41235352 159.84228516 C-201.07672595 146.31924125 -195.91282219 135.10907292 -186.6875 125.1875 C-175.60694591 114.87197303 -161.54150123 110.63409185 -146.6953125 110.7890625 C-122.49407106 112.17052871 -107.66700238 131.18531328 -91.7421875 147.16015625 C-89.98549986 148.91871194 -88.22858911 150.67704477 -86.47146606 152.43516541 C-81.87607218 157.03435399 -77.28369094 161.6365391 -72.69195557 166.23937988 C-67.99438862 170.94722686 -63.29394467 175.65219847 -58.59375 180.35742188 C-49.39303366 189.56882173 -40.19540289 198.78329607 -31 208 C-27.55220166 206.37026273 -25.2999859 204.54292699 -22.59863281 201.82568359 C-21.7380426 200.96494232 -20.87745239 200.10420105 -19.99078369 199.21737671 C-19.07085632 198.28712677 -18.15092896 197.35687683 -17.203125 196.3984375 C-16.24520903 195.43678914 -15.28684886 194.47558306 -14.32806396 193.51480103 C-11.81164875 190.99076718 -9.30129893 188.46078409 -6.79217529 185.92950439 C-4.22837559 183.3452081 -1.65887082 180.76659801 0.91015625 178.1875 C5.94569457 173.13054303 10.9748456 168.06727744 16 163 C11.58089404 157.70072538 6.910328 152.79848988 1.99438477 147.96020508 C1.21471344 147.18841919 0.43504211 146.4166333 -0.36825562 145.62145996 C-2.051603 143.95523161 -3.73598314 142.2900461 -5.42129326 140.62580299 C-9.01508751 137.07429097 -12.59940202 133.51327585 -16.1843195 129.95280743 C-22.84640851 123.33631279 -29.51183318 116.72331744 -36.19458008 110.12768555 C-40.85541902 105.5274977 -45.50276896 100.91392764 -50.14274788 96.29269981 C-51.90472602 94.54240541 -53.67121307 92.79663709 -55.44241142 91.0556736 C-68.93527277 77.78735781 -81.19807083 65.31319852 -81.46850586 45.26318359 C-81.45827393 44.39258301 -81.44804199 43.52198242 -81.4375 42.625 C-81.42920166 41.7067041 -81.42090332 40.7884082 -81.41235352 39.84228516 C-81.07672595 26.31924125 -75.91282219 15.10907292 -66.6875 5.1875 C-48.25689798 -11.97061057 -20.76403843 -13.73008388 0 0 Z " fill="#0061C3" transform="translate(360,132)"/>
<path d="M0 0 C10.1339478 8.13115001 19.06602006 17.92079507 28.23046875 27.09765625 C29.99288097 28.85939367 31.75544152 30.62098273 33.5181427 32.38243103 C37.19690831 36.05972872 40.87387547 39.73881266 44.54956055 43.41918945 C49.246629 48.12196305 53.9481773 52.82021373 58.65108776 57.5171442 C62.28612035 61.14855385 65.91875625 64.78235349 69.55068398 68.41686821 C71.28300019 70.14984846 73.01605112 71.88209461 74.74986839 73.61357307 C77.17576975 76.03691845 79.59841486 78.46347459 82.02026367 80.89086914 C82.72744537 81.59602661 83.43462708 82.30118408 84.16323853 83.02770996 C88.0982628 86.97933759 91.84526526 91.03794991 95.48910236 95.25948048 C97.18040354 97.20782076 98.93305813 99.0780047 100.74121094 100.91821289 C101.38588318 101.57572037 102.03055542 102.23322784 102.69476318 102.91065979 C103.36783508 103.59111862 104.04090698 104.27157745 104.734375 104.97265625 C105.81238373 106.0627726 105.81238373 106.0627726 106.91217041 107.1749115 C108.42337776 108.69985058 109.93607329 110.2233162 111.45019531 111.74536133 C112.98074628 113.28744829 114.50681664 114.83399557 116.02832031 116.38500977 C129.38391685 129.99877604 141.52175766 141.50894361 161.5625 142.25 C170.86722272 142.12388177 179.46307472 139.94591836 187.29296875 134.890625 C187.85628906 134.59671875 188.41960937 134.3028125 189 134 C189.66 134.33 190.32 134.66 191 135 C185.84091146 140.26156044 180.66537258 145.50653788 175.47875977 150.7409668 C173.72081154 152.51887525 171.96648825 154.3003763 170.21606445 156.08569336 C148.68423219 178.0355001 125.52452274 194.82869331 93.61328125 195.24169922 C62.57667391 195.32445052 38.93264488 184.96213856 16.80473328 163.1091156 C15.96336319 162.26841019 15.1219931 161.42770477 14.25512695 160.56152344 C13.33832153 159.65304153 12.42151611 158.74455963 11.47692871 157.80854797 C8.99084409 155.34416098 6.51113335 152.87346172 4.0333178 150.40076351 C2.47870872 148.84982507 0.922816 147.30018578 -0.63349342 145.75095367 C-6.080435 140.32841251 -11.52171641 134.90025833 -16.95825195 129.46728516 C-21.99862543 124.4305482 -27.05199263 119.40710923 -32.11142129 114.38952041 C-36.47988568 110.05590034 -40.83852871 105.71255921 -45.18995315 101.36183 C-47.7780702 98.77450039 -50.36988411 96.19117932 -52.97192955 93.61785126 C-55.87657678 90.74455807 -58.76053885 87.85129523 -61.64331055 84.95605469 C-62.91447472 83.70714195 -62.91447472 83.70714195 -64.21131897 82.43299866 C-74.46046206 72.05790594 -81.26931512 60.03115733 -81.46850586 45.26318359 C-81.45827393 44.39258301 -81.44804199 43.52198242 -81.4375 42.625 C-81.42920166 41.7067041 -81.42090332 40.7884082 -81.41235352 39.84228516 C-81.07672595 26.31924125 -75.91282219 15.10907292 -66.6875 5.1875 C-48.21728295 -12.00749048 -20.81291233 -13.67188517 0 0 Z " fill="#65CBFE" transform="translate(240,252)"/>
<path d="M0 0 C4.97763754 4.18378845 9.7081352 8.52385947 14.33203125 13.09375 C15.00868332 13.76233032 15.68533539 14.43091064 16.38249207 15.11975098 C17.80667054 16.53017992 19.22936341 17.94211039 20.65063477 19.35546875 C22.08201704 20.77537411 23.51784189 22.19081614 24.95825195 23.6015625 C47.28629523 45.47142399 61.52463717 69.11889861 62.3125 101.25 C61.76186954 132.50637588 47.5764031 156.93906281 25.96118164 178.70458984 C24.31085935 180.37666227 22.69227651 182.07595353 21.07226562 183.77734375 C10.0348986 195.09052883 -2.84273099 201.65189938 -18.875 202.3125 C-43.91806887 201.68446066 -58.94280149 182.21366258 -75.25 165.8125 C-76.78492013 164.27255107 -78.32007483 162.73283592 -79.85546875 161.19335938 C-83.57301568 157.46492489 -87.28767751 153.73363601 -91 150 C-89.50803467 146.52596448 -87.52720394 144.27923861 -84.86083984 141.61791992 C-83.57842911 140.33089424 -83.57842911 140.33089424 -82.27011108 139.01786804 C-80.87957016 137.63810539 -80.87957016 137.63810539 -79.4609375 136.23046875 C-78.49610483 135.26682985 -77.53164336 134.30281916 -76.5675354 133.3384552 C-74.54468385 131.31716675 -72.51852316 129.29927615 -70.48974609 127.28393555 C-67.90941406 124.72049023 -65.33560941 122.15061585 -62.76408958 119.57833385 C-60.77046791 117.58498648 -58.77423178 115.59427438 -56.7771492 113.60439491 C-55.3716496 112.20356227 -53.96758982 110.80128547 -52.56356812 109.39897156 C-48.12876124 104.99654244 -43.63413296 100.75014457 -38.89608765 96.6771698 C-35.54177157 93.71013522 -32.4267422 90.5090841 -29.2890625 87.31640625 C-27.86601296 85.88073294 -26.44283223 84.44518966 -25.01953125 83.00976562 C-22.80556407 80.77081401 -20.59324756 78.5302738 -18.38330078 76.28735352 C-16.23119197 74.10522957 -14.07305801 71.92921352 -11.9140625 69.75390625 C-10.9172496 68.73690392 -10.9172496 68.73690392 -9.90029907 67.69935608 C-9.2856076 67.08128586 -8.67091614 66.46321564 -8.03759766 65.82641602 C-7.49769196 65.27905289 -6.95778625 64.73168976 -6.40151978 64.16773987 C-5 63 -5 63 -3 63 C-2.5978125 62.16275391 -2.5978125 62.16275391 -2.1875 61.30859375 C-0.45386159 57.93826381 1.57033723 54.75747952 3.5625 51.53515625 C9.45899162 41.13618054 9.97630502 25.85049619 6.8125 14.375 C5.39725918 10.44226349 3.36802964 7.01946449 0.98828125 3.59375 C0 2 0 2 0 0 Z " fill="#0095F8" transform="translate(421,193)"/>
<path d="M0 0 C0.99 0.99 0.99 0.99 2 2 C2.33 -1.3 2.66 -4.6 3 -8 C13.56 -8 24.12 -8 35 -8 C35.06802648 6.96129069 35.12316046 21.92250083 35.15543652 36.88391018 C35.17082895 43.83257569 35.19177024 50.78113746 35.22631836 57.72973633 C35.25970054 64.44710257 35.27689986 71.16433931 35.28463173 77.88179207 C35.29013532 80.43276722 35.30088136 82.98373711 35.31719017 85.53466606 C35.45736981 108.38887088 35.4394967 130.37767986 18.42578125 147.8203125 C3.09782652 161.59325733 -18.08713276 164.77187086 -38.0625 163.875 C-52.56632544 162.93262106 -65.75188006 158.78520521 -79 153 C-75.02540795 144.04693727 -65.95657752 135.48974751 -58 130 C-53.26291686 129.24614161 -50.35808774 130.59604506 -46.00537109 132.38183594 C-35.15021707 135.72798276 -20.11689879 133.7709492 -10 129 C-5.43261131 126.34825395 -2.75550009 122.98931604 -1 118 C-0.48428744 114.33945202 -0.19045063 110.69080191 0 107 C-0.44988281 107.44730469 -0.89976563 107.89460938 -1.36328125 108.35546875 C-11.90817513 118.26640107 -24.59270773 121.58685785 -38.84765625 121.23828125 C-54.39969492 120.06272442 -69.29083441 114.31964087 -79.890625 102.6171875 C-92.72581592 86.69204321 -97.6066165 66.98996947 -95.6875 46.6953125 C-93.43397048 28.30490193 -86.5594381 13.02873625 -72.43359375 0.7734375 C-50.80579917 -16.03768667 -21.88285217 -15.92193186 0 0 Z M-53.3125 28.85546875 C-61.1373911 38.79960119 -62.06855717 50.79610314 -61 63 C-59.42067535 72.28515702 -55.1202276 78.89694778 -48 85 C-40.83132938 89.94626876 -33.59842347 91.76144361 -24.984375 90.58984375 C-15.31434255 88.56108066 -8.91874093 84.20092122 -3.25 76.14453125 C2.42062665 66.4158624 3.23498808 54.87679834 0.875 44.0625 C-2.06612946 33.32395757 -7.20099611 26.4589957 -16.796875 20.97265625 C-29.50429472 15.0805407 -44.15648472 18.90568602 -53.3125 28.85546875 Z " fill="#000000" transform="translate(1470,268)"/>
<path d="M0 0 C86.80918367 0 86.80918367 0 113.125 24.75 C130.01740899 42.17974208 134.49633145 66.17182117 134.21484375 89.53125 C133.60291713 111.27174865 126.29017801 130.40196606 111 146 C110.33484375 146.70125 109.6696875 147.4025 108.984375 148.125 C81.38958506 175.08784819 33.1150898 169 0 169 C0 113.23 0 57.46 0 0 Z M34 31 C34 66.31 34 101.62 34 138 C61.42123751 138.15044141 61.42123751 138.15044141 84.12109375 125.0625 C92.61038894 115.74368948 97.44529109 103.59651473 98 91 C98.07734375 89.59041016 98.07734375 89.59041016 98.15625 88.15234375 C98.62491547 72.08102359 94.97066689 56.20514736 83.9375 44.0625 C69.56121933 30.89038643 53.13520978 31 34 31 Z " fill="#000000" transform="translate(1168,217)"/>
<path d="M0 0 C12.54 0 25.08 0 38 0 C42.49956887 11.24892219 42.49956887 11.24892219 44.11206055 15.95727539 C44.47790253 17.02129578 44.84374451 18.08531616 45.22067261 19.18157959 C45.60546783 20.30888489 45.99026306 21.43619019 46.38671875 22.59765625 C47.02291317 24.45075916 47.65910886 26.30386163 48.29535675 28.15694618 C48.96733774 30.11559402 49.63810362 32.07465401 50.3085022 34.03384399 C52.40800346 40.16916039 54.51512134 46.30186271 56.62141228 52.43485069 C57.33778827 54.52101463 58.0538647 56.60728122 58.76991272 58.69355774 C63.42155604 72.24334775 68.11184222 85.7796365 72.8125 99.3125 C73.18224945 100.3772757 73.5519989 101.44205139 73.93295288 102.53909302 C75.95426327 108.35975666 77.97657004 114.18007285 80 120 C82.33300343 116.50049486 83.55705702 112.89660545 84.9140625 108.953125 C85.3440152 107.71945442 85.3440152 107.71945442 85.78265381 106.46086121 C86.73447362 103.72540402 87.67985508 100.98776998 88.625 98.25 C89.29226999 96.32683125 89.95975417 94.40373682 90.62744141 92.48071289 C96.95181925 74.23857011 103.16102025 55.95706654 109.37109375 37.67578125 C112.37921503 28.82067391 115.39355525 19.96786817 118.4375 11.125 C118.7969873 10.07368896 119.15647461 9.02237793 119.52685547 7.93920898 C119.8467041 7.01309814 120.16655273 6.0869873 120.49609375 5.1328125 C120.76607178 4.34793457 121.0360498 3.56305664 121.31420898 2.75439453 C122 1 122 1 123 0 C125.8116338 -0.08861992 128.59858255 -0.11522355 131.41015625 -0.09765625 C132.25219101 -0.0962413 133.09422577 -0.09482635 133.96177673 -0.09336853 C136.66205335 -0.08775263 139.36224828 -0.07519748 142.0625 -0.0625 C143.88867068 -0.05748705 145.71484266 -0.05292379 147.54101562 -0.04882812 C152.02737542 -0.03777804 156.51367384 -0.02050279 161 0 C158.71119914 9.85658707 155.07991915 19.22709185 151.53909302 28.68301392 C150.01615479 32.75027198 148.50388702 36.82147534 146.99064636 40.89234924 C146.19483102 43.03272523 145.39844717 45.17288991 144.60151672 47.31285095 C140.38656554 58.63313485 136.22248798 69.97192857 132.0625 81.3125 C130.94563425 84.35552744 129.82859643 87.39849169 128.71154785 90.44145203 C127.9607469 92.48676582 127.21001454 94.5321048 126.45935059 96.57746887 C123.65547288 104.2167703 120.84783132 111.85468323 118.0390625 119.4921875 C116.81610983 122.81837442 115.59321115 126.14458117 114.37033081 129.47079468 C113.59362813 131.58303559 112.81671825 133.69520032 112.0395813 135.80728149 C110.95678236 138.75020893 109.87479761 141.6934346 108.79296875 144.63671875 C108.48223419 145.4806015 108.17149963 146.32448425 107.85134888 147.19393921 C105.1869528 154.44674648 102.59916493 161.72233819 100 169 C87.46 169 74.92 169 62 169 C56.37612729 155.50270551 56.37612729 155.50270551 54.62255859 150.66381836 C54.22306 149.56608597 53.8235614 148.46835358 53.41195679 147.33735657 C52.99499542 146.18317734 52.57803406 145.02899811 52.1484375 143.83984375 C51.69231964 142.58425942 51.2359004 141.32878453 50.77920532 140.07341003 C49.81120203 137.41136391 48.84468092 134.74878689 47.87939453 132.08575439 C45.30998778 124.99842344 42.72949647 117.91512536 40.1484375 110.83203125 C39.8880645 110.11729897 39.6276915 109.40256668 39.35942841 108.66617584 C34.30478881 94.79471578 29.17004861 80.95386537 24 67.125 C18.40714588 52.15473752 12.82590164 37.18058134 7.3190918 22.17840576 C6.65421309 20.36796992 5.98821854 18.55794344 5.32104492 16.74835205 C4.41522628 14.29043688 3.5135916 11.83103093 2.61328125 9.37109375 C2.34558426 8.64674637 2.07788727 7.92239899 1.80207825 7.17610168 C0 2.22919425 0 2.22919425 0 0 Z " fill="#000000" transform="translate(566,217)"/>
<path d="M0 0 C1.60009575 1.52426183 3.18467848 3.06504837 4.75 4.625 C5.38808594 5.23988281 6.02617188 5.85476563 6.68359375 6.48828125 C18.11423848 18.37717008 22.75 35.48476278 22.75 51.625 C21.55534664 70.53412274 15.83003278 86.78271575 1.83984375 100.08203125 C-13.08313417 112.8986905 -32.87366501 118.02781158 -52.25 116.625 C-70.18721218 114.3562617 -87.40772283 107.90613256 -99.25 93.625 C-111.51055477 77.03869626 -115.54859781 58.6598529 -112.96142578 38.36083984 C-109.96920637 20.83727837 -100.50209928 6.17831393 -86.25 -4.3125 C-60.15080617 -21.23169348 -23.87679553 -20.86530781 0 0 Z M-72.25 26.625 C-78.91901707 37.42712638 -80.82407647 47.87372968 -78.7890625 60.48046875 C-76.30436789 69.90769242 -70.09570368 77.0230487 -62.25 82.625 C-54.36490274 86.96498297 -45.25885367 87.37962861 -36.6328125 85.3515625 C-26.76544897 82.34282542 -20.720214 76.99786299 -15.546875 68.22265625 C-12.62495695 62.37001919 -11.86149253 57.318061 -11.875 50.875 C-11.87661133 50.07803711 -11.87822266 49.28107422 -11.87988281 48.45996094 C-12.01046791 42.17395262 -13.0965365 37.1326116 -16.25 31.625 C-17.11625 30.0471875 -17.11625 30.0471875 -18 28.4375 C-23.4478387 21.62770163 -29.61708745 16.58860999 -38.25 14.625 C-52.05008379 13.18097829 -63.08112435 15.79382819 -72.25 26.625 Z " fill="#000000" transform="translate(1125.25,272.375)"/>
<path d="M0 0 C15.4895798 16.66600358 17.1875 36.9180796 17.1875 58.8125 C-11.8525 58.8125 -40.8925 58.8125 -70.8125 58.8125 C-67.85586678 69.65348849 -65.70371228 75.51222799 -56.8125 81.8125 C-48.65852234 86.29805701 -38.79447964 87.30799491 -29.796875 85.05859375 C-22.69669369 82.58516993 -16.96986463 79.36658499 -11.8125 73.8125 C-8.34620165 75.29903506 -6.12227964 77.26972351 -3.484375 79.9453125 C-2.68515625 80.75097656 -1.8859375 81.55664062 -1.0625 82.38671875 C-0.2375 83.22847656 0.5875 84.07023437 1.4375 84.9375 C2.27796875 85.78699219 3.1184375 86.63648438 3.984375 87.51171875 C6.05665683 89.60754923 8.12412393 91.70790713 10.1875 93.8125 C-1.26225019 107.57562072 -14.93407097 114.57769637 -32.8125 116.8125 C-52.16652995 118.36773455 -70.90314867 113.49892094 -85.8125 100.8125 C-97.79825152 89.97473442 -104.8968584 74.55288271 -105.96777344 58.48242188 C-106.9993792 36.67376456 -102.23662854 18.91398312 -88.19921875 1.8515625 C-78.38337691 -8.91419952 -63.74539693 -15.08661247 -49.33203125 -16.15625 C-30.95261079 -16.3842118 -13.89319854 -12.95446891 0 0 Z M-61.8125 18.8125 C-66.80097382 24.18896623 -69.8125 29.32657758 -69.8125 36.8125 C-52.6525 36.8125 -35.4925 36.8125 -17.8125 36.8125 C-19.03219036 27.05497711 -21.32140494 21.93875786 -28.8125 15.8125 C-39.65848741 9.89650687 -52.30866397 10.71588433 -61.8125 18.8125 Z " fill="#000000" transform="translate(824.8125,272.1875)"/>
<path d="M0 0 C9.86353496 10.80967741 11.80685538 24.61771686 11.74243164 38.6796875 C11.74257767 39.52941635 11.74272369 40.3791452 11.74287415 41.25462341 C11.74218297 44.03566123 11.73442817 46.81663028 11.7265625 49.59765625 C11.72469549 51.53678348 11.72327292 53.47591119 11.72227478 55.41503906 C11.71847189 60.49816204 11.70866079 65.58125607 11.6975708 70.66436768 C11.68730861 75.85957447 11.68276689 81.05478598 11.67773438 86.25 C11.66703638 96.42840013 11.64945779 106.60677124 11.62890625 116.78515625 C0.73890625 116.78515625 -10.15109375 116.78515625 -21.37109375 116.78515625 C-21.70109375 114.80515625 -22.03109375 112.82515625 -22.37109375 110.78515625 C-22.86996094 111.18347656 -23.36882812 111.58179688 -23.8828125 111.9921875 C-34.50665425 119.83132387 -46.99766458 121.06190029 -59.8125 119.31640625 C-72.57272801 116.96325773 -83.22844118 112.14701536 -91.37109375 101.78515625 C-98.09984329 91.14779484 -100.1580549 79.7402684 -97.68359375 67.33984375 C-94.7432336 56.77905022 -89.34753374 49.11964918 -80.37109375 42.78515625 C-70.30382602 37.22978807 -60.99495459 35.39502433 -49.62109375 35.41015625 C-48.0285376 35.4093103 -48.0285376 35.4093103 -46.40380859 35.40844727 C-37.78801993 35.52945182 -31.10708623 36.91716001 -23.37109375 40.78515625 C-23.00078312 34.73674922 -23.25681694 30.18323605 -26.37109375 24.78515625 C-33.00613065 18.15011935 -39.33685973 17.46005982 -48.34375 17.375 C-51.39027667 17.53645014 -53.78891199 18.221152 -56.6171875 19.3515625 C-65.63762035 22.76896878 -65.63762035 22.76896878 -70.37109375 21.78515625 C-77.96087895 16.99740979 -83.78508389 9.70829267 -89.37109375 2.78515625 C-88.37109375 -0.21484375 -88.37109375 -0.21484375 -85.44921875 -1.8984375 C-84.17966669 -2.49703459 -82.90304698 -3.08078727 -81.62109375 -3.65234375 C-80.94296631 -3.95873779 -80.26483887 -4.26513184 -79.56616211 -4.58081055 C-55.39810226 -15.25722535 -21.1963996 -19.22921635 0 0 Z M-59.37109375 64.78515625 C-63.09418306 68.30699749 -64.19920834 71.44885797 -64.5234375 76.4453125 C-64.25619847 80.54982984 -62.94071009 83.58880422 -60.37109375 86.78515625 C-53.27267708 92.63518062 -46.35874722 93.45829535 -37.37109375 92.78515625 C-31.11737415 91.52372221 -27.46547595 88.57857932 -23.37109375 83.78515625 C-21.51029224 78.20275173 -21.43284027 72.73383656 -23.99609375 67.41015625 C-33.22565404 57.20906329 -48.67550543 55.87216598 -59.37109375 64.78515625 Z " fill="#000000" transform="translate(1754.37109375,269.21484375)"/>
<path d="M0 0 C11.22 0 22.44 0 34 0 C34 8.91 34 17.82 34 27 C41.59 27 49.18 27 57 27 C57 35.91 57 44.82 57 54 C49.41 54 41.82 54 34 54 C34.06313154 61.2939595 34.138721 68.58754068 34.23571491 75.88113403 C34.28027556 79.26855042 34.31956199 82.6558505 34.34643555 86.04345703 C34.38008992 89.94593252 34.43241401 93.84778692 34.48828125 97.75 C34.49467117 98.95551514 34.5010611 100.16103027 34.50764465 101.40307617 C34.61953892 112.08169405 34.61953892 112.08169405 40 120.9375 C46.08487406 124.17008935 50.07833833 123.39064141 58 124 C58 133.57 58 143.14 58 153 C49.84179331 157.07910335 34.14771027 154.82066865 25.5625 152.375 C16.03241642 148.78867907 9.45584937 142.72981193 4.8125 133.6875 C0.42554408 123.62330701 -0.30333434 113.02402703 -0.22705078 102.17285156 C-0.22734283 101.0591922 -0.22763489 99.94553284 -0.22793579 98.79812622 C-0.22655616 95.16220977 -0.21105992 91.52650511 -0.1953125 87.890625 C-0.1915775 85.35186881 -0.18873283 82.81311118 -0.18673706 80.27435303 C-0.17991314 74.30358704 -0.16419323 68.33288761 -0.14403808 62.36215568 C-0.12157096 55.55669699 -0.11065865 48.75123448 -0.10064721 41.94574785 C-0.07982333 27.96378327 -0.04319097 13.98191247 0 0 Z " fill="#000000" transform="translate(942,233)"/>
<path d="M0 0 C10.89 0 21.78 0 33 0 C33 8.91 33 17.82 33 27 C40.92 27 48.84 27 57 27 C57 35.91 57 44.82 57 54 C49.08 54 41.16 54 33 54 C33.09718515 61.38351392 33.20007535 68.76649932 33.31738281 76.1496582 C33.35554843 78.65872428 33.39042246 81.16784275 33.421875 83.67700195 C33.46779567 87.29397241 33.52574559 90.91058599 33.5859375 94.52734375 C33.59748871 95.64020248 33.60903992 96.75306122 33.62094116 97.89964294 C33.76324407 105.49416815 34.01093676 113.30770507 38 120 C44.69632938 124.01779763 49.5314552 123.34857348 58 124 C58 133.57 58 143.14 58 153 C53.98841567 155.00579216 48.90938778 154.22900292 44.5 154.25 C43.448125 154.270625 42.39625 154.29125 41.3125 154.3125 C29.48801071 154.37103708 20.29615332 151.4176203 11.3125 143.6875 C1.74541406 132.56899471 -0.16104581 120.78566971 -0.11352539 106.48681641 C-0.11367142 105.33501892 -0.11381744 104.18322144 -0.1139679 102.996521 C-0.11327251 99.19818219 -0.10549759 95.39989272 -0.09765625 91.6015625 C-0.09579074 88.96454902 -0.09436747 86.32753519 -0.09336853 83.69052124 C-0.09026547 77.46458554 -0.08206593 71.23866748 -0.07201904 65.01273954 C-0.06082603 57.92204853 -0.05533943 50.83135665 -0.05032361 43.740659 C-0.03988244 29.16042895 -0.02154973 14.58021798 0 0 Z " fill="#000000" transform="translate(1587,233)"/>
<path d="M0 0 C11.22 0 22.44 0 34 0 C34 57.42 34 114.84 34 174 C22.78 174 11.56 174 0 174 C0 116.58 0 59.16 0 0 Z " fill="#000000" transform="translate(1789,212)"/>
<path d="M0 0 C0 11.55 0 23.1 0 35 C-7.425 35.99 -7.425 35.99 -15 37 C-21.86164667 39.69840038 -27.23522311 42.49720356 -31 49 C-34.5191476 57.31695655 -36.07619424 65.46556915 -36.20532227 74.48608398 C-36.2352401 76.34722084 -36.2352401 76.34722084 -36.26576233 78.24595642 C-36.28273983 79.57933431 -36.29961888 80.91271345 -36.31640625 82.24609375 C-36.33700832 83.62615027 -36.35800557 85.00620094 -36.37937927 86.38624573 C-36.43426442 89.99794748 -36.48381995 93.60970297 -36.53222656 97.22149658 C-36.5826885 100.9152904 -36.63819618 104.60900826 -36.69335938 108.30273438 C-36.80100195 115.53509704 -36.90028536 122.76750632 -37 130 C-48.22 130 -59.44 130 -71 130 C-71 88.42 -71 46.84 -71 4 C-60.11 4 -49.22 4 -38 4 C-37.505 10.93 -37.505 10.93 -37 18 C-36.05125 16.63875 -35.1025 15.2775 -34.125 13.875 C-28.08976874 6.10142627 -19.68664285 1.74575135 -10 0.375 C-6.59981745 -0.03585539 -3.49395318 0 0 0 Z " fill="#000000" transform="translate(929,256)"/>
<path d="M0 0 C11.22 0 22.44 0 34 0 C34 41.58 34 83.16 34 126 C22.78 126 11.56 126 0 126 C0 84.42 0 42.84 0 0 Z " fill="#000000" transform="translate(1529,260)"/>
<path d="M0 0 C11.22 0 22.44 0 34 0 C34 41.58 34 83.16 34 126 C22.78 126 11.56 126 0 126 C0 84.42 0 42.84 0 0 Z " fill="#000000" transform="translate(1321,260)"/>
<path d="M0 0 C5.30610818 3.07614902 8.50999687 7.24092812 10.45703125 13.08203125 C11.19974793 19.93694098 10.50945748 25.39810875 6.45703125 31.08203125 C1.70848345 35.70882141 -2.90307737 37.36913592 -9.48046875 37.39453125 C-15.20423383 37.26842627 -18.8722966 36.57852913 -23.16015625 32.5703125 C-27.28088265 28.18341477 -29.42710435 24.0865945 -29.60546875 17.921875 C-29.28067136 12.00447257 -27.40492358 7.57244068 -23.54296875 3.08203125 C-17.13875655 -2.36836211 -7.83998638 -2.83010261 0 0 Z " fill="#000000" transform="translate(1347.54296875,211.91796875)"/>
<path d="M0 0 C4.26421817 3.22416496 7.85431792 6.81295376 9.5625 11.9375 C10.22767474 19.39618065 10.22681104 24.92299366 5.5625 30.9375 C0.81136789 35.68863211 -3.01278437 37.10253535 -9.6875 37.25 C-15.62522004 37.19716156 -18.77925841 36.60462636 -23.4375 32.9375 C-28.8169746 27.12185179 -29.90199286 22.72269567 -29.75 14.9140625 C-29.15603794 9.25657389 -26.61289638 5.79311701 -22.375 2.0625 C-16.05641036 -2.50839463 -7.28420324 -2.251481 0 0 Z " fill="#000000" transform="translate(1555.4375,212.0625)"/>
<path d="M0 0 C0.66 0.33 1.32 0.66 2 1 C-0.31 3.31 -2.62 5.62 -5 8 C-5.99 7.67 -6.98 7.34 -8 7 C-5.4837822 4.39391727 -2.94865641 2.10618315 0 0 Z " fill="#005F9F" transform="translate(454,361)"/>
</svg>
